<svg version="1.0" xmlns="http://www.w3.org/2000/svg" preserveAspectRatio="xMidYMid meet" viewBox="52.4 126.6 708.42 263.4">

<g transform="translate(0.000000,483.000000) scale(0.100000,-0.100000)" fill="#f4f4f4" stroke="none">
<path d="M1263 3486 l-39 -78 -57 63 -57 64 0 -76 c0 -64 19 -202 35 -259 3 -10 -6 -20 -24 -28 -49 -21 -120 -91 -171 -167 -66 -98 -98 -128 -166 -154 -33 -12 -94 -42 -136 -67 -42 -24 -81 -44 -86 -44 -5 0 -17 -9 -26 -19 -13 -14 -15 -24 -8 -38 13 -23 128 -133 140 -133 5 0 15 -11 22 -25 23 -43 66 -49 203 -30 205 29 332 5 384 -73 l22 -33 16 24 c15 24 17 24 57 10 23 -8 63 -30 89 -49 26 -19 51 -34 57 -34 5 0 13 -10 16 -22 3 -13 15 -34 26 -48 17 -21 21 -23 30 -10 6 9 10 10 10 3 0 -19 110 -133 174 -180 64 -47 82 -54 66 -24 -16 32 -12 33 38 8 26 -14 64 -30 85 -36 20 -7 37 -17 37 -22 0 -5 -17 -26 -38 -47 -40 -40 -85 -61 -292 -137 -149 -55 -240 -98 -262 -122 -9 -10 -42 -65 -73 -122 -61 -113 -101 -168 -225 -312 -44 -52 -83 -105 -87 -118 -10 -39 26 -61 102 -61 60 0 68 3 141 53 67 44 83 61 109 112 72 143 177 258 265 292 30 12 84 32 120 46 115 43 377 97 476 97 79 0 104 13 105 52 0 49 29 113 74 168 62 75 82 83 195 73 l95 -8 -3 -35 c-4 -47 -66 -149 -146 -237 -101 -113 -158 -204 -171 -273 -6 -32 -2 -39 37 -76 43 -41 188 -148 261 -193 32 -19 51 -23 116 -22 117 2 242 38 249 73 4 19 -93 137 -129 156 -16 9 -47 11 -98 8 -72 -6 -74 -5 -102 25 -16 17 -29 39 -29 49 0 18 58 85 220 255 118 124 182 209 227 301 l36 70 71 18 c39 10 123 37 186 61 166 61 170 62 205 24 56 -60 175 -148 248 -184 41 -20 110 -43 160 -53 81 -17 91 -22 136 -66 l49 -49 144 -13 c150 -14 237 -34 363 -84 139 -55 173 -76 196 -123 89 -173 254 -440 342 -552 56 -71 146 -125 208 -125 29 0 52 55 45 108 -5 40 -16 54 -109 146 -81 79 -115 121 -154 191 -90 159 -163 363 -163 456 0 38 -12 49 -50 49 -10 0 -22 5 -25 10 -4 6 13 10 43 10 41 0 56 -6 94 -35 25 -20 68 -64 94 -98 71 -90 351 -373 383 -387 15 -6 59 -10 97 -8 l69 3 -1 38 c-2 51 -45 110 -125 170 -133 100 -371 353 -463 493 -33 49 -64 92 -70 96 -6 4 -59 8 -118 8 -125 0 -221 18 -323 61 -126 52 -145 71 -183 184 -18 54 -71 177 -117 273 -47 96 -84 176 -83 177 2 2 107 -66 235 -149 217 -141 451 -314 603 -446 91 -78 272 -219 350 -270 107 -72 382 -207 487 -240 147 -46 266 -63 399 -58 135 5 170 22 67 33 -142 15 -271 73 -326 147 -41 56 -1 61 143 18 110 -32 278 -60 361 -60 68 0 236 24 314 45 183 49 370 169 486 313 111 137 156 256 166 432 9 180 -40 316 -150 417 -77 70 -156 89 -251 61 -45 -14 -119 -81 -129 -117 -4 -18 2 -14 30 18 60 71 140 98 223 77 69 -18 115 -59 152 -134 44 -88 49 -172 18 -274 -57 -187 -137 -266 -320 -318 -64 -18 -103 -20 -270 -21 -224 0 -330 14 -512 65 -231 65 -351 115 -818 338 -69 33 -183 86 -255 118 -71 32 -170 77 -220 100 -226 104 -377 155 -575 192 -138 27 -379 31 -508 9 -69 -11 -96 -11 -157 -1 -104 18 -297 8 -405 -19 -117 -30 -258 -73 -430 -131 -275 -91 -484 -126 -695 -116 -114 6 -245 23 -245 32 0 1 5 15 10 29 9 24 8 26 -7 20 -10 -3 -47 -13 -82 -21 -54 -13 -65 -13 -75 -1 -16 20 -120 77 -141 77 -17 0 -17 1 -1 19 18 20 15 25 -24 34 -14 4 -74 36 -135 72 -60 36 -112 65 -116 65 -10 0 -134 161 -164 213 -15 27 -34 65 -40 85 l-13 36 -39 -78z m66 -108 c111 -244 123 -290 96 -379 -10 -32 -15 -62 -11 -66 11 -11 72 55 102 110 20 37 28 67 29 104 0 58 2 58 80 -2 24 -17 63 -41 89 -51 34 -14 44 -23 40 -36 -3 -10 3 -21 16 -28 30 -16 26 -72 -13 -160 -48 -109 -100 -184 -190 -273 -73 -72 -79 -81 -73 -109 l6 -30 -60 4 c-45 3 -60 1 -60 -9 0 -17 -22 -17 -39 0 -10 10 -15 8 -27 -7 -14 -19 -15 -19 -47 12 -71 69 -159 82 -370 57 -142 -18 -147 -18 -174 1 l-28 19 40 5 40 5 -45 8 c-88 15 -141 66 -121 116 7 14 10 38 9 51 -3 23 9 31 127 90 128 64 130 66 197 150 115 145 175 197 248 215 24 6 26 3 38 -61 12 -63 29 -110 37 -102 2 2 -1 37 -7 78 -18 135 2 350 34 350 5 0 22 -28 37 -62z m3213 -243 c189 -37 286 -69 478 -156 180 -81 207 -97 351 -208 121 -93 360 -335 398 -401 68 -121 25 -172 -119 -139 -60 14 -201 81 -261 124 -27 19 -51 35 -54 35 -9 0 36 -83 74 -135 19 -27 62 -83 93 -123 32 -40 58 -78 58 -83 0 -5 -11 -9 -24 -9 -39 0 -205 119 -446 320 -176 147 -346 273 -555 412 -104 70 -230 163 -280 207 -58 52 -118 94 -169 120 l-79 39 54 11 c95 18 112 19 236 15 73 -3 173 -14 245 -29z m-722 -26 c81 -13 193 -59 243 -100 44 -36 77 -96 77 -138 0 -70 -86 -119 -184 -106 -96 12 -144 55 -137 122 2 24 45 53 78 53 34 0 73 -28 73 -53 0 -19 -20 -36 -36 -30 -16 6 -19 -13 -3 -22 20 -13 60 5 70 32 23 62 -31 113 -120 113 -42 0 -56 -5 -84 -30 -45 -39 -53 -79 -28 -135 42 -95 218 -157 353 -125 43 11 63 23 105 67 29 29 59 53 67 53 48 0 215 -373 262 -588 15 -64 28 -122 29 -128 6 -20 160 -118 254 -160 116 -52 141 -72 141 -113 0 -78 -153 -97 -328 -41 -52 17 -127 36 -167 42 l-72 11 30 43 c20 29 31 59 35 93 7 79 -4 117 -52 166 -39 41 -47 45 -90 45 -41 0 -53 -5 -81 -33 -44 -44 -52 -78 -28 -119 43 -75 174 -44 133 32 -6 11 -20 20 -32 20 -17 0 -19 -3 -10 -12 16 -16 15 -25 -4 -32 -46 -18 -72 46 -34 84 43 43 108 20 146 -52 31 -60 2 -136 -66 -171 -43 -22 -119 -16 -167 14 -18 11 -94 91 -170 177 -166 191 -175 199 -249 249 -79 53 -84 56 -84 45 0 -4 38 -39 85 -77 82 -65 100 -93 59 -88 -92 12 -217 14 -264 4 -30 -6 -124 -36 -208 -66 -83 -30 -157 -55 -163 -55 -6 0 -8 8 -5 18 9 28 -5 39 -84 68 -107 38 -277 124 -343 173 -60 44 -79 80 -59 112 7 10 8 20 3 24 -16 10 -41 -26 -41 -58 0 -54 65 -109 215 -184 99 -50 250 -113 270 -113 21 0 19 -8 -19 -91 -47 -104 -112 -188 -277 -360 -145 -151 -237 -226 -265 -215 -9 3 -12 1 -9 -4 9 -15 -8 -12 -31 4 -13 10 -23 11 -31 4 -21 -17 -15 -25 15 -22 l27 4 -28 -9 c-18 -6 -39 -6 -59 1 -28 10 -30 14 -24 46 7 43 54 114 142 214 102 115 161 254 122 285 -7 6 -48 13 -91 17 -134 12 -252 52 -360 124 -90 60 -90 171 -1 208 73 30 155 7 180 -51 18 -43 10 -79 -23 -105 -63 -49 -128 7 -71 60 12 11 16 20 10 20 -21 0 -52 -39 -52 -65 0 -33 33 -65 68 -65 96 0 144 127 75 201 -67 72 -236 57 -302 -27 -59 -75 16 -185 182 -266 l82 -39 -160 6 c-207 7 -246 15 -361 69 -95 45 -96 46 -92 21 3 -14 2 -25 -2 -25 -4 0 -54 48 -111 107 -59 62 -104 102 -107 94 -4 -12 -42 40 -42 58 0 5 14 18 32 29 48 30 165 150 214 218 56 78 117 202 139 280 17 61 18 62 59 68 22 4 51 9 63 12 16 4 21 1 20 -12 -2 -22 31 -32 158 -44 293 -30 462 -5 905 137 293 93 479 115 690 82z m875 -890 c80 -36 169 -57 254 -60 82 -3 106 -23 96 -77 -4 -20 -11 -45 -16 -54 -15 -27 -85 -59 -143 -65 -56 -5 -89 9 -212 88 l-62 40 -21 92 c-12 51 -21 96 -21 100 0 5 13 -1 30 -13 16 -12 59 -34 95 -51z m-922 -24 c53 -8 109 -21 125 -29 51 -27 213 -213 176 -203 -10 3 -37 8 -59 12 -87 15 -208 85 -330 193 -55 49 -55 49 88 27z m-1623 -205 c36 -5 113 -10 173 -12 l107 -2 -33 -35 c-47 -51 -65 -83 -82 -147 -8 -31 -16 -58 -17 -60 -2 -1 -46 -7 -98 -13 -52 -7 -146 -24 -210 -38 -208 -46 -314 -62 -413 -63 -108 0 -119 6 -97 59 20 50 50 68 240 141 189 72 283 123 295 160 7 23 32 25 135 10z"/>
<path d="M1190 3159 c0 -5 5 -7 10 -4 6 3 10 8 10 11 0 2 -4 4 -10 4 -5 0 -10 -5 -10 -11z"/>
<path d="M1185 3090 c3 -5 8 -10 11 -10 2 0 4 5 4 10 0 6 -5 10 -11 10 -5 0 -7 -4 -4 -10z"/>
<path d="M1215 3050 c3 -5 8 -10 11 -10 2 0 4 5 4 10 0 6 -5 10 -11 10 -5 0 -7 -4 -4 -10z"/>
<path d="M1021 2904 c-37 -31 -42 -64 -8 -64 32 0 128 27 140 39 7 7 5 17 -8 31 -27 29 -85 27 -124 -6z"/>
<path d="M1061 2817 c-19 -19 -13 -54 10 -60 17 -4 18 -3 8 9 -9 11 -8 18 5 33 14 15 15 19 3 24 -8 3 -20 0 -26 -6z"/>
<path d="M1120 2800 c0 -11 4 -20 9 -20 5 0 7 9 4 20 -3 11 -7 20 -9 20 -2 0 -4 -9 -4 -20z"/>
<path d="M930 2790 c0 -5 7 -10 15 -10 8 0 15 5 15 10 0 6 -7 10 -15 10 -8 0 -15 -4 -15 -10z"/>
<path d="M986 2767 c6 -15 44 -17 44 -2 0 6 -11 12 -25 13 -16 1 -23 -3 -19 -11z"/>
<path d="M924 2755 c-4 -8 -15 -15 -25 -15 -10 0 -19 -7 -19 -15 0 -8 5 -15 11 -15 5 0 8 -4 4 -9 -3 -5 -1 -13 5 -16 15 -9 40 14 33 31 -3 8 0 14 6 14 7 0 14 -7 17 -15 4 -8 12 -15 20 -15 10 0 8 6 -6 20 -11 11 -17 26 -14 35 4 10 0 15 -10 15 -9 0 -19 -7 -22 -15z"/>
<path d="M1048 2733 c7 -3 16 -2 19 1 4 3 -2 6 -13 5 -11 0 -14 -3 -6 -6z"/>
<path d="M840 2670 c0 -5 7 -10 16 -10 8 0 12 5 9 10 -3 6 -10 10 -16 10 -5 0 -9 -4 -9 -10z"/>
<path d="M943 2603 c-57 -20 -54 -32 5 -25 51 5 82 17 82 32 0 14 -38 11 -87 -7z"/>
<path d="M5154 2735 c-10 -25 4 -45 31 -45 30 0 43 24 25 45 -16 19 -49 19 -56 0z"/>
<path d="M5297 2627 c-31 -22 -18 -59 27 -81 43 -21 69 -14 74 21 7 45 -65 87 -101 60z"/>
<path d="M5488 2459 c-29 -16 -23 -63 12 -93 57 -47 140 -43 140 7 0 27 -43 71 -83 86 -35 13 -47 13 -69 0z"/>
<path d="M2087 2844 c-11 -11 3 -24 18 -18 8 4 12 10 9 15 -6 11 -18 12 -27 3z"/>
<path d="M1985 2760 c-3 -5 -1 -10 4 -10 6 0 11 5 11 10 0 6 -2 10 -4 10 -3 0 -8 -4 -11 -10z"/>
<path d="M1946 2735 c-3 -8 -1 -15 4 -15 6 0 10 7 10 15 0 8 -2 15 -4 15 -2 0 -6 -7 -10 -15z"/>
<path d="M2175 2550 c-3 -5 1 -10 9 -10 9 0 16 5 16 10 0 6 -4 10 -9 10 -6 0 -13 -4 -16 -10z"/>
<path d="M3462 2483 c2 -12 32 -27 96 -49 51 -17 95 -34 99 -37 3 -4 11 -7 16 -7 24 0 -43 55 -98 81 -70 34 -118 39 -113 12z"/>
</g>
</svg>